<svg data-v-fde0c5aa="" xmlns="http://www.w3.org/2000/svg" viewBox="0 0 300 300" class="iconLeft"><!----><defs data-v-fde0c5aa=""><!----></defs><rect data-v-fde0c5aa="" fill="#50A6D8" x="0" y="0" width="300px" height="300px" class="logo-background-square"></rect><defs data-v-fde0c5aa=""><!----></defs><g data-v-fde0c5aa="" id="cb4e7e2e-0aff-44fe-917d-54919757f322" fill="#ffffff" transform="matrix(2.424204285682999,0,0,2.424204285682999,91.49355145566362,129.12760077660317)"><path d="M0.74 8.88C0.74 12.01 3.21 14.14 6.03 14.14C8.55 14.14 10.50 12.56 10.93 10.46L9.81 10.46C9.38 12.11 7.91 13.13 6.03 13.13C3.81 13.13 1.85 11.44 1.85 8.88C1.85 6.33 3.81 4.65 6.03 4.65C8.16 4.65 9.55 5.99 9.77 7.78L10.89 7.78C10.70 5.61 8.82 3.64 6.03 3.64C3.19 3.64 0.74 5.75 0.74 8.88ZM15.53 6.58C13.80 6.58 12.59 7.56 12.49 9.02L13.48 9.02C13.54 8.18 14.34 7.49 15.48 7.49C16.77 7.49 17.53 8.16 17.53 9.67L17.53 9.94L15.26 9.93C13.34 9.93 12.19 10.79 12.19 12.01C12.19 13.27 13.24 14.14 14.59 14.14C15.88 14.14 16.90 13.55 17.65 12.96L17.86 14L18.55 14L18.55 9.67C18.55 7.70 17.46 6.58 15.53 6.58ZM13.23 12.00C13.23 11.19 13.94 10.79 15.27 10.79L17.53 10.79L17.53 12.11C16.77 12.70 15.82 13.22 14.80 13.22C13.94 13.22 13.23 12.78 13.23 12.00ZM26.66 3.08L26.66 7.66C26.01 6.94 25.13 6.58 24.05 6.58C22.01 6.58 20.37 8.20 20.37 10.33C20.37 12.52 21.99 14.14 24.07 14.14C25.26 14.14 26.15 13.69 26.80 12.87L26.99 14L27.66 14L27.66 3.08ZM24.09 13.23C22.67 13.23 21.43 11.97 21.43 10.33C21.43 8.72 22.67 7.49 24.09 7.49C25.30 7.49 26.15 8.11 26.63 9.03L26.63 11.68C26.14 12.63 25.31 13.23 24.09 13.23ZM39.97 6.58C38.78 6.58 37.69 6.99 36.54 7.85C36.16 7.01 35.39 6.58 34.34 6.58C33.19 6.58 32.14 6.96 31.04 7.76L30.84 6.72L30.11 6.72L30.11 14L31.15 14L31.15 8.62C32.13 7.97 33.18 7.50 34.08 7.50C35.14 7.50 35.77 8.12 35.77 9.30L35.77 14L36.81 14L36.81 9.25C36.81 9.04 36.79 8.83 36.76 8.65C37.74 7.98 38.78 7.50 39.70 7.50C40.78 7.50 41.40 8.13 41.40 9.30L41.40 14L42.43 14L42.43 9.25C42.43 7.50 41.51 6.58 39.97 6.58ZM45.39 5.10C45.82 5.10 46.19 4.73 46.19 4.27C46.19 3.85 45.82 3.50 45.39 3.50C44.94 3.50 44.59 3.85 44.59 4.27C44.59 4.73 44.94 5.10 45.39 5.10ZM45.88 6.72L44.83 6.72L44.83 14L45.88 14ZM53.72 6.72L53.72 12.18C52.78 12.82 51.83 13.22 51.00 13.22C49.91 13.22 49.31 12.60 49.31 11.42L49.31 6.72L48.26 6.72L48.26 11.47C48.26 13.22 49.20 14.14 50.74 14.14C51.81 14.14 52.77 13.78 53.84 13.06L54.03 14L54.77 14L54.77 6.72ZM67.05 6.58C65.86 6.58 64.76 6.99 63.62 7.85C63.24 7.01 62.47 6.58 61.42 6.58C60.27 6.58 59.22 6.96 58.11 7.76L57.92 6.72L57.19 6.72L57.19 14L58.23 14L58.23 8.62C59.21 7.97 60.26 7.50 61.15 7.50C62.22 7.50 62.85 8.12 62.85 9.30L62.85 14L63.88 14L63.88 9.25C63.88 9.04 63.87 8.83 63.84 8.65C64.82 7.98 65.86 7.50 66.78 7.50C67.86 7.50 68.47 8.13 68.47 9.30L68.47 14L69.51 14L69.51 9.25C69.51 7.50 68.59 6.58 67.05 6.58Z"></path></g><defs data-v-fde0c5aa=""><!----></defs><g data-v-fde0c5aa="" id="b4e87aa3-e0e6-438b-881f-1ef3992b9853" stroke="none" fill="#ffffff" transform="matrix(0.7040554477354475,0,0,0.7040554477354475,24.941661740057175,114.79557452893778)"><path d="M73.985 58.043l-3.038-5.497c.63-.972.858-2.17.592-3.314a4.307 4.307 0 0 0-.586-1.613l3.224-5.583c.052.002.101.016.153.016 2.36 0 4.28-1.92 4.28-4.28a4.285 4.285 0 0 0-4.28-4.281c-.053 0-.102.014-.152.016l-3.225-5.583a4.236 4.236 0 0 0 .629-2.202 4.285 4.285 0 0 0-4.28-4.281c-1.634 0-3.04.931-3.761 2.281H57.26c-.721-1.35-2.127-2.28-3.761-2.28-2.36 0-4.28 1.92-4.28 4.281 0 .819.243 1.577.643 2.228l-3.208 5.556c-.052-.002-.101-.016-.153-.016-1.607 0-2.991.903-3.722 2.217l-6.148-.116c-.023-.047-.035-.096-.061-.142a4.286 4.286 0 0 0-5.817-1.676 4.242 4.242 0 0 0-1.616 1.604l-.002.004c-.06.103-.119.205-.169.312a4.226 4.226 0 0 0-.562 2.078c0 .8.235 1.541.619 2.182l-3.18 5.275a4.242 4.242 0 0 0-2.245.515c-1.447.8-2.23 2.32-2.189 3.869-.003.07-.021.138-.021.209 0 2.36 1.92 4.28 4.28 4.28.053 0 .102-.014.153-.016l2.37 4.104.589 1.067c-.833 1.283-.968 2.965-.177 4.396.298.539.7.983 1.162 1.333a4.253 4.253 0 0 0 2.919 1.167c1.635 0 3.041-.932 3.762-2.281h6.057c.01.026.019.052.033.078.754 1.364 2.152 2.129 3.607 2.178.07.006.139.013.21.015l3.036 5.493c-.833 1.284-.967 2.965-.177 4.395a4.285 4.285 0 0 0 5.816 1.677 4.244 4.244 0 0 0 1.624-1.616l6.445.122c.022.045.035.096.061.142a4.286 4.286 0 0 0 5.816 1.676 4.285 4.285 0 0 0 1.677-5.816c-.025-.047-.06-.083-.087-.126l3.327-5.522a4.248 4.248 0 0 0 2.231-.515 4.287 4.287 0 0 0 1.677-5.817c-.788-1.434-2.283-2.215-3.814-2.193zm-27.971-.419a4.176 4.176 0 0 0-1.801.507 4.247 4.247 0 0 0-1.661 1.676l-6.218-.116a4.374 4.374 0 0 0-.917-1.091 4.303 4.303 0 0 0-3.106-1.277l-.608-1.052-2.365-4.28a4.216 4.216 0 0 0 .612-2.17c0-.064-.011-.126-.014-.189a4.188 4.188 0 0 0-.519-2.213c-.008-.015-.019-.026-.028-.04l3.088-5.349c.07.004.137.021.208.021 1.635 0 3.041-.932 3.762-2.281h6.292a4.28 4.28 0 0 0 3.272 2.247c.221.039.445.063.671.067l3.18 5.509a4.588 4.588 0 0 0-.325.655c-.506 1.171-.502 2.546.162 3.748.026.046.061.082.088.126l-3.296 5.47a3.952 3.952 0 0 0-.477.032zm7.293-27.643c.065.003.127.02.192.02 1.635 0 3.041-.931 3.762-2.281h6.28c.721 1.35 2.127 2.28 3.761 2.28.075 0 .146-.019.22-.022l3.191 5.527a4.244 4.244 0 0 0-.663 2.266c0 .833.249 1.606.663 2.265l-3.19 5.526c-.075-.004-.146-.022-.221-.022-1.634 0-3.04.932-3.761 2.281H57.26c-.721-1.35-2.127-2.281-3.761-2.281-.052 0-.101.014-.153.016l-.661-1.146-2.351-4.253c.832-1.283.967-2.965.177-4.395-.085-.154-.194-.286-.295-.426l3.091-5.355zm17 34.39c.037.067.087.119.127.183l-3.295 5.467a4.24 4.24 0 0 0-2.303.515 4.239 4.239 0 0 0-1.662 1.677l-6.38-.12c-.033-.067-.052-.139-.087-.204-.79-1.43-2.286-2.21-3.815-2.188l-2.939-5.319a4.238 4.238 0 0 0 .829-2.509c0-.819-.243-1.578-.644-2.229l3.15-5.457a4.226 4.226 0 0 0 2.228-.514 4.236 4.236 0 0 0 1.662-1.676l6.377.118c.029.06.044.121.076.179.79 1.43 2.285 2.211 3.816 2.188l3.037 5.497c-.833 1.283-.967 2.962-.177 4.392z"></path></g><!----></svg>