<svg data-v-fde0c5aa="" xmlns="http://www.w3.org/2000/svg" viewBox="0 0 300 300" class="font"><!----><defs data-v-fde0c5aa=""><!----></defs><rect data-v-fde0c5aa="" fill="#50A6D8" x="0" y="0" width="300px" height="300px" class="logo-background-square"></rect><defs data-v-fde0c5aa=""><!----></defs><g data-v-fde0c5aa="" id="1b10ae8c-73ce-4993-828d-1f49185758a0" fill="#ffffff" transform="matrix(3.199069162892278,0,0,3.199069162892278,37.63269107710359,122.45601408037568)"><path d="M0.74 8.88C0.74 12.01 3.21 14.14 6.03 14.14C8.55 14.14 10.50 12.56 10.93 10.46L9.81 10.46C9.38 12.11 7.91 13.13 6.03 13.13C3.81 13.13 1.85 11.44 1.85 8.88C1.85 6.33 3.81 4.65 6.03 4.65C8.16 4.65 9.55 5.99 9.77 7.78L10.89 7.78C10.70 5.61 8.82 3.64 6.03 3.64C3.19 3.64 0.74 5.75 0.74 8.88ZM15.53 6.58C13.80 6.58 12.59 7.56 12.49 9.02L13.48 9.02C13.54 8.18 14.34 7.49 15.48 7.49C16.77 7.49 17.53 8.16 17.53 9.67L17.53 9.94L15.26 9.93C13.34 9.93 12.19 10.79 12.19 12.01C12.19 13.27 13.24 14.14 14.59 14.14C15.88 14.14 16.90 13.55 17.65 12.96L17.86 14L18.55 14L18.55 9.67C18.55 7.70 17.46 6.58 15.53 6.58ZM13.23 12.00C13.23 11.19 13.94 10.79 15.27 10.79L17.53 10.79L17.53 12.11C16.77 12.70 15.82 13.22 14.80 13.22C13.94 13.22 13.23 12.78 13.23 12.00ZM26.66 3.08L26.66 7.66C26.01 6.94 25.13 6.58 24.05 6.58C22.01 6.58 20.37 8.20 20.37 10.33C20.37 12.52 21.99 14.14 24.07 14.14C25.26 14.14 26.15 13.69 26.80 12.87L26.99 14L27.66 14L27.66 3.08ZM24.09 13.23C22.67 13.23 21.43 11.97 21.43 10.33C21.43 8.72 22.67 7.49 24.09 7.49C25.30 7.49 26.15 8.11 26.63 9.03L26.63 11.68C26.14 12.63 25.31 13.23 24.09 13.23ZM39.97 6.58C38.78 6.58 37.69 6.99 36.54 7.85C36.16 7.01 35.39 6.58 34.34 6.58C33.19 6.58 32.14 6.96 31.04 7.76L30.84 6.72L30.11 6.72L30.11 14L31.15 14L31.15 8.62C32.13 7.97 33.18 7.50 34.08 7.50C35.14 7.50 35.77 8.12 35.77 9.30L35.77 14L36.81 14L36.81 9.25C36.81 9.04 36.79 8.83 36.76 8.65C37.74 7.98 38.78 7.50 39.70 7.50C40.78 7.50 41.40 8.13 41.40 9.30L41.40 14L42.43 14L42.43 9.25C42.43 7.50 41.51 6.58 39.97 6.58ZM45.39 5.10C45.82 5.10 46.19 4.73 46.19 4.27C46.19 3.85 45.82 3.50 45.39 3.50C44.94 3.50 44.59 3.85 44.59 4.27C44.59 4.73 44.94 5.10 45.39 5.10ZM45.88 6.72L44.83 6.72L44.83 14L45.88 14ZM53.72 6.72L53.72 12.18C52.78 12.82 51.83 13.22 51.00 13.22C49.91 13.22 49.31 12.60 49.31 11.42L49.31 6.72L48.26 6.72L48.26 11.47C48.26 13.22 49.20 14.14 50.74 14.14C51.81 14.14 52.77 13.78 53.84 13.06L54.03 14L54.77 14L54.77 6.72ZM67.05 6.58C65.86 6.58 64.76 6.99 63.62 7.85C63.24 7.01 62.47 6.58 61.42 6.58C60.27 6.58 59.22 6.96 58.11 7.76L57.92 6.72L57.19 6.72L57.19 14L58.23 14L58.23 8.62C59.21 7.97 60.26 7.50 61.15 7.50C62.22 7.50 62.85 8.12 62.85 9.30L62.85 14L63.88 14L63.88 9.25C63.88 9.04 63.87 8.83 63.84 8.65C64.82 7.98 65.86 7.50 66.78 7.50C67.86 7.50 68.47 8.13 68.47 9.30L68.47 14L69.51 14L69.51 9.25C69.51 7.50 68.59 6.58 67.05 6.58Z"></path></g><!----><!----></svg>