<?xml version="1.0" encoding="UTF-8" standalone="no"?>
<svg
   data-v-423bf9ae=""
   viewBox="0 0 140 140"
   class="iconLeft"
   version="1.1"
   id="svg8"
   sodipodi:docname="logo.svg"
   width="140"
   height="140"
   inkscape:version="1.1.1 (3bf5ae0d25, 2021-09-20)"
   inkscape:export-filename="/home/timo/Documents/Projects/foss/project-cadmium/cadmium_creators/assets/logos/vector/logo.png"
   inkscape:export-xdpi="1000"
   inkscape:export-ydpi="1000"
   xmlns:inkscape="http://www.inkscape.org/namespaces/inkscape"
   xmlns:sodipodi="http://sodipodi.sourceforge.net/DTD/sodipodi-0.dtd"
   xmlns="http://www.w3.org/2000/svg"
   xmlns:svg="http://www.w3.org/2000/svg">
  <defs
     id="defs12" />
  <sodipodi:namedview
     id="namedview10"
     pagecolor="#ffffff"
     bordercolor="#666666"
     borderopacity="1.0"
     inkscape:pageshadow="2"
     inkscape:pageopacity="0.0"
     inkscape:pagecheckerboard="0"
     showgrid="false"
     inkscape:zoom="2.8161157"
     inkscape:cx="16.689655"
     inkscape:cy="93.391049"
     inkscape:window-width="1900"
     inkscape:window-height="1036"
     inkscape:window-x="8"
     inkscape:window-y="32"
     inkscape:window-maximized="1"
     inkscape:current-layer="svg8" />
  <!---->
  <!---->
  <!---->
  <!---->
  <!---->
  <g
     data-v-423bf9ae=""
     id="19bbd6be-bb36-4e81-8c10-1f67968852fd"
     transform="matrix(1.5755557,0,0,1.5755557,-8.7762094,-8.7814846)"
     stroke="none"
     fill="#ffffff"
     style="fill:#2196f3;fill-opacity:1">
    <path
       d="m 73.985,58.043 -3.038,-5.497 c 0.63,-0.972 0.858,-2.17 0.592,-3.314 a 4.307,4.307 0 0 0 -0.586,-1.613 l 3.224,-5.583 c 0.052,0.002 0.101,0.016 0.153,0.016 2.36,0 4.28,-1.92 4.28,-4.28 a 4.285,4.285 0 0 0 -4.28,-4.281 c -0.053,0 -0.102,0.014 -0.152,0.016 l -3.225,-5.583 a 4.236,4.236 0 0 0 0.629,-2.202 4.285,4.285 0 0 0 -4.28,-4.281 c -1.634,0 -3.04,0.931 -3.761,2.281 H 57.26 c -0.721,-1.35 -2.127,-2.28 -3.761,-2.28 -2.36,0 -4.28,1.92 -4.28,4.281 0,0.819 0.243,1.577 0.643,2.228 l -3.208,5.556 c -0.052,-0.002 -0.101,-0.016 -0.153,-0.016 -1.607,0 -2.991,0.903 -3.722,2.217 L 36.631,35.592 C 36.608,35.545 36.596,35.496 36.57,35.45 a 4.286,4.286 0 0 0 -5.817,-1.676 4.242,4.242 0 0 0 -1.616,1.604 l -0.002,0.004 c -0.06,0.103 -0.119,0.205 -0.169,0.312 a 4.226,4.226 0 0 0 -0.562,2.078 c 0,0.8 0.235,1.541 0.619,2.182 l -3.18,5.275 a 4.242,4.242 0 0 0 -2.245,0.515 c -1.447,0.8 -2.23,2.32 -2.189,3.869 -0.003,0.07 -0.021,0.138 -0.021,0.209 0,2.36 1.92,4.28 4.28,4.28 0.053,0 0.102,-0.014 0.153,-0.016 l 2.37,4.104 0.589,1.067 c -0.833,1.283 -0.968,2.965 -0.177,4.396 0.298,0.539 0.7,0.983 1.162,1.333 a 4.253,4.253 0 0 0 2.919,1.167 c 1.635,0 3.041,-0.932 3.762,-2.281 h 6.057 c 0.01,0.026 0.019,0.052 0.033,0.078 0.754,1.364 2.152,2.129 3.607,2.178 0.07,0.006 0.139,0.013 0.21,0.015 l 3.036,5.493 c -0.833,1.284 -0.967,2.965 -0.177,4.395 a 4.285,4.285 0 0 0 5.816,1.677 4.244,4.244 0 0 0 1.624,-1.616 l 6.445,0.122 c 0.022,0.045 0.035,0.096 0.061,0.142 a 4.286,4.286 0 0 0 5.816,1.676 4.285,4.285 0 0 0 1.677,-5.816 c -0.025,-0.047 -0.06,-0.083 -0.087,-0.126 l 3.327,-5.522 a 4.248,4.248 0 0 0 2.231,-0.515 4.287,4.287 0 0 0 1.677,-5.817 C 77.011,58.802 75.516,58.021 73.985,58.043 Z M 46.014,57.624 a 4.176,4.176 0 0 0 -1.801,0.507 4.247,4.247 0 0 0 -1.661,1.676 L 36.334,59.691 A 4.374,4.374 0 0 0 35.417,58.6 4.303,4.303 0 0 0 32.311,57.323 l -0.608,-1.052 -2.365,-4.28 a 4.216,4.216 0 0 0 0.612,-2.17 c 0,-0.064 -0.011,-0.126 -0.014,-0.189 a 4.188,4.188 0 0 0 -0.519,-2.213 c -0.008,-0.015 -0.019,-0.026 -0.028,-0.04 l 3.088,-5.349 c 0.07,0.004 0.137,0.021 0.208,0.021 1.635,0 3.041,-0.932 3.762,-2.281 h 6.292 a 4.28,4.28 0 0 0 3.272,2.247 c 0.221,0.039 0.445,0.063 0.671,0.067 l 3.18,5.509 a 4.588,4.588 0 0 0 -0.325,0.655 c -0.506,1.171 -0.502,2.546 0.162,3.748 0.026,0.046 0.061,0.082 0.088,0.126 l -3.296,5.47 a 3.952,3.952 0 0 0 -0.477,0.032 z m 7.293,-27.643 c 0.065,0.003 0.127,0.02 0.192,0.02 1.635,0 3.041,-0.931 3.762,-2.281 h 6.28 c 0.721,1.35 2.127,2.28 3.761,2.28 0.075,0 0.146,-0.019 0.22,-0.022 l 3.191,5.527 a 4.244,4.244 0 0 0 -0.663,2.266 c 0,0.833 0.249,1.606 0.663,2.265 l -3.19,5.526 c -0.075,-0.004 -0.146,-0.022 -0.221,-0.022 -1.634,0 -3.04,0.932 -3.761,2.281 H 57.26 c -0.721,-1.35 -2.127,-2.281 -3.761,-2.281 -0.052,0 -0.101,0.014 -0.153,0.016 L 52.685,44.41 50.334,40.157 c 0.832,-1.283 0.967,-2.965 0.177,-4.395 -0.085,-0.154 -0.194,-0.286 -0.295,-0.426 z m 17,34.39 c 0.037,0.067 0.087,0.119 0.127,0.183 l -3.295,5.467 a 4.24,4.24 0 0 0 -2.303,0.515 4.239,4.239 0 0 0 -1.662,1.677 l -6.38,-0.12 c -0.033,-0.067 -0.052,-0.139 -0.087,-0.204 -0.79,-1.43 -2.286,-2.21 -3.815,-2.188 l -2.939,-5.319 a 4.238,4.238 0 0 0 0.829,-2.509 c 0,-0.819 -0.243,-1.578 -0.644,-2.229 l 3.15,-5.457 a 4.226,4.226 0 0 0 2.228,-0.514 4.236,4.236 0 0 0 1.662,-1.676 l 6.377,0.118 c 0.029,0.06 0.044,0.121 0.076,0.179 0.79,1.43 2.285,2.211 3.816,2.188 l 3.037,5.497 c -0.833,1.283 -0.967,2.962 -0.177,4.392 z"
       id="path5"
       style="fill:#2196f3;fill-opacity:1" />
  </g>
</svg>
